@startuml

package raisemeup.model {
    class DAO {
        users : Map<Integer, User>
        pets : Map<Integer, Pet>
        foods : Map<Integer, Food>
        upgrades : Map<Integer, Upgrade>
        jobs : Map<Integer, Job>
        dbfile : String
        addUser(u: User): boolean
        checkIfUserExists(u: User): boolean
        delUser(u: User): boolean
        updateUser(u: User): boolean
        addPet(p: Pet): boolean
        checkIfPetExists(p: Pet): boolean
        delPet(p: Pet): boolean
        updatePet(p: Pet): boolean
        addFood(f: Food): boolean
        checkIfFoodExists(f: Food): boolean
        delFood(f: Food): boolean
        updateFood(f: Food): boolean
        addUpgrade(up: Upgrade): boolean
        checkIfUpgradeExists(up: Upgrade): boolean
        delUpgrade(up: Upgrade): boolean
        updateUpgrade(u: Upgrade): boolean
        addJob(j: Job): boolean
    }

    class ItemVisitor {
        visit(food: Food): int
        visit(upgrade: Upgrade): int
    }
}

package raisemeup.model.beans {
    class Food {
        valuedog : int
        valuecat : int
        valuefish : int
        valuepenguin : int
        setValuedog(valuedog: int)
        setValuecat(valuecat: int)
        setValuefish(valuefish: int)
        setValuepenguin(valuepenguin: int)
    }

    class Job {
        id : int
        impactenergy : int
        impacthunger : int
        impacthygiene : int
        impactfun : int
        title : String
        length : int
        image : String
        client : String
        message : String
        reward : int
        species : String
        setImpactenergy(impactenergy: int)
        setImpacthunger(impacthunger: int)
        setImpacthygiene(impacthygiene: int)
        setImpactfun(impactfun: int)
    }

    class Pet {
        petid : int
        owner : int
        name : String
        type : String
        variant : String
        hunger : int
        energy : int
        fun : int
        hygiene : int
        age : int
        image : String
        owneditems : Map<Item, Integer>
        ownedjobs : Map<Job, Integer>
        money : int
        setName(name: String)
        setHunger(hunger: int)
        setEnergy(energy: int)
        setFun(fun: int)
        setHygiene(hygiene: int)
        setAge(age: int)
        setMoney(money: int)
    }

    class PetBuilder {
        owner : int
        name : String
        type : String
        variant : String
        image : String
        setOwner(owner: int): PetBuilder
        setName(name: String): PetBuilder
        setType(type: String): PetBuilder
        setVariant(variant: String): PetBuilder
        setImage(image: String): PetBuilder
        createPet(): Pet
    }

    class Upgrade {
        property : String
        species : String
        value : int
        setProperty(property: String)
        setSpecies(species: String)
        setValue(value: int)
    }

    class User {
        id : int
        email : String
        username : String
        password : String
        setEmail(email: String)
        setUsername(username: String)
        setPassword(password: String)
    }

    class UserBuilder {
        id : int
        email : String
        username : String
        password : String
        setId(id: int): UserBuilder
        setEmail(email: String): UserBuilder
        setUsername(username: String): UserBuilder
        setPassword(password: String): UserBuilder
        createUser(): User
    }
}

Food --|> Item
Upgrade --|> Item
ItemVisitor --> Food
ItemVisitor --> Upgrade
PetBuilder --> Pet
UserBuilder --> User
DAO --> User
DAO --> Pet
DAO --> Food
DAO --> Upgrade
DAO --> Job
Pet --> Job : ownedjobs
Pet --> Item : owneditems

@enduml

