@startuml

class Employee {
  - id
  - name
  - position
  - schedList
  + addSchedule()
}

class Schedule {
  - id
  - start_date
  - end_date
  - p
  - e
  + getStartDate()
  + getEndDate()
  + getPattern()
  + getEmployee()
}

class Pattern {
  - plArray
  - noOfHours
  + addPhL()
  + getPhL()
  + getArrayPhaseLabor()
  + getNoOfHours()
  + setNoOfHours()
  + getPhaseLabor()
}

class PhaseLabor {
  - id
  - lb
  - ph
  - percentage
  + getPhase()
  + getLaborBilling()
  + getPercentage()
}

class Phase {
  - name
  - id
  - p
  + getProject()
  + setProject()
  + getName()
  + getID()
}

class LaborBilling {
  - id
  - name
  + getName()
  + getId()
}

class Project {
  - id
  - name
  - phList
  + addPhase()
  + getName()
  + getID()
}

class POIGenerator {
  - pEmp
  - wb
  - sablon
  - month
  - year
  - schedEmp
  - fileOut
  - sheet1
  - createHelper
  - underFont
  - style
  - tablestyle
  - tableheadstyle
  - tableweekendstyle
  - datestyle
  - PhLArray
  - getNextMonday()
  - getPatternForDay()
  - getListOfDistinctPhaseLabor()
  - getListOfPatterns()
  - generateHeader()
  - getDateFrom()
  - generateTableRow()
  - generateWeek()
  - howManyDays()
  - styleMe()
  - generateDocHeader()
  + generateDoc()
}

Employee "1" -- "many" Schedule
Schedule "1" -- "1" Pattern
Schedule "1" -- "1" Employee
Pattern "1" -- "many" PhaseLabor
PhaseLabor "1" -- "1" LaborBilling
PhaseLabor "1" -- "1" Phase
Phase "1" -- "1" Project
Project "1" -- "many" Phase
POIGenerator "1" -- "1" Employee
POIGenerator "1" -- "many" Schedule
POIGenerator "1" -- "many" PhaseLabor

@enduml

