@startuml

class Employee {
    - id
    - name
    - position
    - schedList
    + addSchedule()
}

class LaborBilling {
    - id
    - name
    + getName(): String
    + getId(): String
}

class Pattern {
    - plArray
    - noOfHours
    + addPhL()
    + getPhL(): PhaseLabor
    + getArrayPhaseLabor(): ArrayList
    + getNoOfHours(): Integer
    + setNoOfHours()
    + getPhaseLabor(): PhaseLabor
}

class Phase {
    - name
    - id
    - p
    + getProject(): Project
    + setProject()
    + getName(): String
    + getID(): String
}

class PhaseLabor {
    - id
    - lb
    - ph
    - percentage
    + getPhase(): Phase
    + getLaborBilling(): LaborBilling
    + getPercentage(): Float
}

class POIGenerator {
    - pEmp
    - wb
    - sablon
    - month
    - year
    - schedEmp
    - fileOut
    - sheet1
    - createHelper
    - underFont
    - style
    - tablestyle
    - tableheadstyle
    - tableweekendstyle
    - datestyle
    - PhLArray
    - getNextMonday(): Calendar
    - getPatternForDay(): Pattern
    - getListOfDistinctPhaseLabor(): ArrayList
    - getListOfPatterns(): ArrayList
    - generateHeader()
    - getDateFrom(): Calendar
    - generateTableRow(): Float
    - generateWeek()
    - howManyDays(): int
    - styleMe()
    - generateDocHeader()
    + generateDoc()
}

class Project {
    - id
    - name
    - phList
    + addPhase()
    + getName(): String
    + getID(): String
}

class Schedule {
    + getStartDate(): Date
    + getEndDate(): Date
    + getPattern(): Pattern
}

Employee "1" -- "many" Schedule
LaborBilling "1" -- "many" PhaseLabor
Phase "1" -- "many" PhaseLabor
Project "1" -- "many" Phase
PhaseLabor "1" -- "1" LaborBilling
PhaseLabor "1" -- "1" Phase
Pattern "1" -- "many" PhaseLabor
POIGenerator "1" -- "1" Employee

@enduml

