@startuml

class Connection 
class DataSet 
class DataSetRow 
class InputFunction 
class Layer 
class LearningRule 
class NeuralNetwork 
class Neuron 
class TransferFunction 
class Weight 

Connection --> Weight
Connection --> NeurophException
DataSet --> DataSetRow
DataSet --> NeurophException
DataSet --> FileNotFoundException
Layer --> NeurophException
Neuron --> Connection
Neuron --> WeightedSum
Neuron --> NeurophException
Neuron --> Step

@enduml
