@startuml

class Connection {
}

class DataSet {
}

class DataSetRow {
}

abstract class InputFunction {
}

class Layer {
}

abstract class LearningRule {
}

class NeuralNetwork {
}

class Neuron {
}

abstract class TransferFunction {
}

class Weight {
}

Connection --> Neuron : fromNeuron
Connection --> Neuron : toNeuron
Connection --> Weight : weight
DataSet --> DataSetRow : rows
Layer --> Neuron : neurons
NeuralNetwork --> Layer : layers
NeuralNetwork --> LearningRule : learningRule
Neuron --> InputFunction : inputFunction
Neuron --> TransferFunction : transferFunction

@enduml
