@startuml

class Connection {
}

class DataSet {
}

class DataSetRow {
}

class InputFunction {
}

class Layer {
}

class LearningRule {
}

class NeuralNetwork {
}

class Neuron {
}

class TransferFunction {
}

class Weight {
}

Connection --> Weight
Connection --> Neuron
DataSet --> DataSetRow
Layer --> Neuron
NeuralNetwork --> Layer
NeuralNetwork --> LearningRule
Neuron --> Connection
Neuron --> TransferFunction
LearningRule --> DataSet

@enduml
