@startuml

package raisemeup.model.beans {
    class User {
        id : int
        email : String
        username : String
        password : String
        setId(id: int)
        setEmail(email: String)
        setUsername(username: String)
        setPassword(password: String)
    }

    class UserBuilder {
        id : int
        email : String
        username : String
        password : String
        setId(id: int): UserBuilder
        setEmail(email: String): UserBuilder
        setUsername(username: String): UserBuilder
        setPassword(password: String): UserBuilder
        createUser(): User
    }

    class Pet {
        petid : int
        owner : int
        name : String
        type : String
        variant : String
        hunger : int
        energy : int
        fun : int
        hygiene : int
        age : int
        money : int
        image : String
        owneditems : Map<Item, Integer>
        ownedjobs : Map<Job, Integer>
        setName(name: String)
        setHunger(hunger: int)
        setEnergy(energy: int)
        setFun(fun: int)
        setHygiene(hygiene: int)
        setAge(age: int)
        setMoney(money: int)
        setType(type: String)
        setVariant(variant: String)
        setImage(image: String)
        setOwner(owner: int)
        setPetid(petid: int)
    }

    class PetBuilder {
        owner : int
        name : String
        type : String
        variant : String
        image : String
        setOwner(owner: int): PetBuilder
        setName(name: String): PetBuilder
        setType(type: String): PetBuilder
        setVariant(variant: String): PetBuilder
        setImage(image: String): PetBuilder
        createPet(): Pet
    }

    class Job {
        id : int
        impactenergy : int
        impacthunger : int
        impacthygiene : int
        impactfun : int
        title : String
        length : int
        image : String
        client : String
        message : String
        reward : int
        species : String
        setId(id: int)
        setImpactenergy(impactenergy: int)
        setImpacthunger(impacthunger: int)
        setImpacthygiene(impacthygiene: int)
        setImpactfun(impactfun: int)
        setTitle(title: String)
        setImage(image: String)
        setClient(client: String)
        setMessage(message: String)
        setLength(length: int)
        setReward(reward: int)
        setSpecies(species: String)
    }

    class Food extends Item {
        valuedog : int
        valuecat : int
        valuefish : int
        valuepenguin : int
        setValuedog(valuedog: int)
        setValuecat(valuecat: int)
        setValuefish(valuefish: int)
        setValuepenguin(valuepenguin: int)
    }

    class Upgrade extends Item {
        property : String
        species : String
        value : int
        setProperty(property: String)
        setSpecies(species: String)
        setValue(value: int)
    }

    class ItemVisitor {
        visit(food: Food): int
        visit(upgrade: Upgrade): int
    }

    class DAO {
        users : Map<Integer, User>
        pets : Map<Integer, Pet>
        foods : Map<Integer, Food>
        upgrades : Map<Integer, Upgrade>
        jobs : Map<Integer, Job>
        addUser(u: User): boolean
        getUser(): Map<Integer, User>
        checkIfUserExists(u: User): boolean
        delUser(u: User): boolean
        updateUser(u: User): boolean
        addPet(p: Pet): boolean
        getPet(): Map<Integer, Pet>
        checkIfPetExists(p: Pet): boolean
        delPet(p: Pet): boolean
        updatePet(p: Pet): boolean
        addFood(f: Food): boolean
        getFood(): Map<Integer, Food>
        checkIfFoodExists(f: Food): boolean
        delFood(f: Food): boolean
        updateFood(f: Food): boolean
        addUpgrade(up: Upgrade): boolean
        getUpgrade(): Map<Integer, Upgrade>
        checkIfUpgradeExists(up: Upgrade): boolean
        delUpgrade(up: Upgrade): boolean
        updateUpgrade(u: Upgrade): boolean
        addJob(j: Job): boolean
        getJob(): Map<Integer, Job>
        checkIfJobExists(j: Job): boolean
        delJob(j: Job): boolean
        updateJob(j: Job): boolean
    }

    class RaiseMeUp {
        dao : static DAO
        currentUser : static User
        currentPet : static Pet
        currentJob : static Job
        init()
        main(args: String[])
        login(username: String, password: String)
        newUser(id: int, email: String, username: String, password: String): boolean
        bookMyNewAnimal(animalname: String, type: String, variant: String, imagestring: String)
        newFood(f: Food): boolean
        newUpgrade(u: Upgrade): boolean
        newJob(j: Job): boolean
        removeUser(u: User): boolean
        removePet(p: Pet): boolean
        removeFood(f: Food): boolean
        removeUpgrade(u: Upgrade): boolean
        removeJob(j: Job): boolean
    }

    Pet "1" --> "1" User : owner
    Pet "1" --> "*" Job : ownedjobs
    Pet "1" --> "*" Item : owneditems
    Food --|> Item
    Upgrade --|> Item
    DAO --> User
    DAO --> Pet
    DAO --> Food
    DAO --> Upgrade
    DAO --> Job
    RaiseMeUp --> DAO
}

@enduml

