@startuml

package Controllers {
    abstract class BaseController {
        + buildCheckingAccount() : CheckingAccount
        + getBalance() : BigDecimal
        + getWeeklyExpense() : BigDecimal
    }

    class RegisterIncomeController {
        - incomeTypeRepository : IncomeTypeRepository
        + getIncomeTypes() : List<IncomeType>
        + createIncome(:BigDecimal, :IncomeType, :String, :Date) : void
        + buildCheckingAccount() : CheckingAccount
    }

    BaseController <|-- RegisterIncomeController
}

package Presentation {
    abstract class BaseUI {
        + show() : void
        + showHeader() : void
        + showFooter() : void
        + getTitle() : String
        + showContent() : void
        + buildBaseController() : BaseController
    }

    class RegisterIncomeUI {
        - controller : RegisterIncomeController
        - listIncomeType : List<IncomeType>
        + showContent() : void
        + getTitle() : String
        + buildBaseController() : BaseController
    }

    BaseUI <|-- RegisterIncomeUI
}

package Model {
    class CheckingAccount {
        - incomeRepo : IncomeRepository
        - expenseRepo : ExpenseRepository
        + getBalance() : BigDecimal
        + getExpensesTotal() : BigDecimal
        + getIncomesTotal() : BigDecimal
        + setValue(:BigDecimal) : void
        + getValue() : BigDecimal
        + add(:Income) : void
        + add(:Expense) : void
        + getWeeklyExpense() : BigDecimal
    }

    class Income {
        - incomeType : IncomeType
        - dateOccurred : Date
        + getDateOccurred() : Date
        + getIncomeType() : IncomeType
        + setDateOccurred(:Date) : void
        + setIncomeType(:IncomeType) : void
    }

    Income --|> Transaction
}

package Persistence {
    class IncomeRepository {
        - instance : static IncomeRepository
        - listIncome : static List<Income>
        + getInstance() : static IncomeRepository
        + save(:Income) : void
        + getListIncome() : static List<Income>
    }

    class IncomeTypeRepository {
        - instance : static IncomeTypeRepository
        - list : List<IncomeType>
        + getInstance() : static IncomeTypeRepository
        + save(:IncomeType) : void
        + getIncomeTypes() : List<IncomeType>
    }
}

BaseController --> CheckingAccount
RegisterIncomeController --> CheckingAccount
CheckingAccount --> IncomeRepository
CheckingAccount --> ExpenseRepository
CheckingAccount --> StartingBalanceRepository
Income --> IncomeType
IncomeRepository --> Income

@enduml

