@startuml

package Controllers {
    abstract class BaseController {
        +buildCheckingAccount() : CheckingAccount
        +getBalance() : BigDecimal
        +getWeeklyExpense() : BigDecimal
    }
    
    class RegisterIncomeController {
        -incomeTypeRepository : IncomeTypeRepository
        +getIncomeTypes() : List<IncomeType>
        +createIncome(BigDecimal, IncomeType, String, Date) : void
        +buildCheckingAccount() : CheckingAccount
    }
    
    BaseController <|-- RegisterIncomeController
}

package Presentation {
    abstract class BaseUI {
        +show() : void
        +showHeader() : void
        +showFooter() : void
        +getTitle() : String
        +showContent() : void
        +buildBaseController() : BaseController
    }
    
    class RegisterIncomeUI {
        -controller : RegisterIncomeController
        -listIncomeType : List<IncomeType>
        +showContent() : void
        +getTitle() : String
        +buildBaseController() : BaseController
    }
    
    BaseUI <|-- RegisterIncomeUI
}

package Model {
    class CheckingAccount {
        -incomeRepo : IncomeRepository
        -expenseRepo : ExpenseRepository
        +getBalance() : BigDecimal
        +getExpensesTotal() : BigDecimal
        +getIncomesTotal() : BigDecimal
        +setValue(BigDecimal) : void
        +getValue() : BigDecimal
        +add(Income) : void
        +add(Expense) : void
        +getWeeklyExpense() : BigDecimal
    }
    
    class Income {
        -incomeType : IncomeType
        -dateOccurred : Date
        +getDateOccurred() : Date
        +getIncomeType() : IncomeType
        +setDateOccurred(Date) : void
        +setIncomeType(IncomeType) : void
    }
    
    CheckingAccount --> IncomeRepository
    CheckingAccount --> ExpenseRepository
    CheckingAccount --> StartingBalanceRepository
    Income --> IncomeType
}

package Persistence {
    class IncomeRepository {
        -instance : static IncomeRepository
        -listIncome : static List<Income>
        +getInstance() : static synchronized IncomeRepository
        +save(Income) : void
        +getListIncome() : static List<Income>
    }
    
    class IncomeTypeRepository {
        -instance : static IncomeTypeRepository
        -list : List<IncomeType>
        +getInstance() : static synchronized IncomeTypeRepository
        +save(IncomeType) : void
        +getIncomeTypes() : List<IncomeType>
    }
    
    IncomeRepository --> Income
    IncomeTypeRepository --> IncomeType
}

BaseController --> CheckingAccount
RegisterIncomeController --> IncomeTypeRepository
RegisterIncomeController --> CheckingAccount
RegisterIncomeUI --> RegisterIncomeController

@enduml

